<svg width="383" height="420" viewBox="0 0 383 420" fill="none" xmlns="http://www.w3.org/2000/svg">
<rect width="383" height="420" fill="#330F0F" fill-opacity="0.1"/>
<path d="M0 99C0 44.3238 44.3238 0 99 0L284 0C338.676 0 383 44.3238 383 99V321C383 375.676 338.676 420 284 420H99C44.3238 420 0 375.676 0 321L0 99Z" fill="#C41A1A" fill-opacity="0.93"/>
<ellipse cx="279" cy="93.5" rx="44" ry="45.5" fill="#FFF4F4"/>
<path d="M147 93.5C147 118.629 127.301 139 103 139C78.6995 139 59 118.629 59 93.5C59 68.371 78.6995 48 103 48C127.301 48 147 68.371 147 93.5Z" fill="#FFF4F4"/>
<ellipse cx="191" cy="210.5" rx="44" ry="45.5" fill="#FFF4F4"/>
<ellipse cx="103" cy="327" rx="44" ry="46" fill="#FFF4F4"/>
<ellipse cx="279" cy="327.5" rx="44" ry="45.5" fill="#FFF4F4"/>
</svg>
